<svg xmlns="http://www.w3.org/2000/svg" viewBox="0 0 221.19 147.85"><defs><style>.cls-1{fill:#745229;}.cls-2{fill:#e3d7c6;stroke:#745229;stroke-linecap:round;stroke-linejoin:round;stroke-width:5.3px;}.cls-3{fill:#333;}</style></defs><g id="レイヤー_2" data-name="レイヤー 2"><g id="objects"><path class="cls-1" d="M163.56,65.07A2,2,0,0,1,162.47,64l-5.41-12.73,14.21-35.18A2,2,0,0,1,175,17.59L161.42,51.22l4.75,11.2a2,2,0,0,1-2.61,2.65Z"/><path class="cls-1" d="M161.77,60.83a2,2,0,0,1-1.12-2.62l16-39.66a2,2,0,1,1,3.73,1.5l-16,39.67A2,2,0,0,1,161.77,60.83Z"/><path class="cls-1" d="M163.56,65.07a2,2,0,0,1,0-3.72l11.2-4.75L188.32,23a2,2,0,1,1,3.73,1.51L177.84,59.65l-12.74,5.4A2,2,0,0,1,163.56,65.07Z"/><path class="cls-1" d="M167.8,63.27a2,2,0,0,1-1.11-2.62l16-39.67a2,2,0,0,1,3.74,1.51l-16,39.67A2,2,0,0,1,167.8,63.27Z"/><path class="cls-1" d="M130.22,147.61a3.36,3.36,0,0,1-1.86-4.37L161.21,62a3.35,3.35,0,1,1,6.22,2.51l-32.85,81.29A3.35,3.35,0,0,1,130.22,147.61Z"/><path class="cls-1" d="M165.14,71.42,158,68.54a1.79,1.79,0,0,1-1-2.33h0a1.81,1.81,0,0,1,2.33-1l7.12,2.88a1.81,1.81,0,0,1,1,2.33h0A1.8,1.8,0,0,1,165.14,71.42Z"/><path class="cls-1" d="M92.74,147.6a3.48,3.48,0,0,1-4.54-1.93L66.92,93S50.39,66.35,42.12,45.88s-5.84-32.88-4-33.6A3.48,3.48,0,0,1,42.6,14.2L73.38,90.39l21.29,52.67A3.5,3.5,0,0,1,92.74,147.6Z"/><path class="cls-1" d="M74.55,91.92l-7.4,3a1.86,1.86,0,0,1-2.42-1h0a1.87,1.87,0,0,1,1-2.42l7.39-3a1.86,1.86,0,0,1,2.42,1h0A1.85,1.85,0,0,1,74.55,91.92Z"/><path class="cls-1" d="M166.9,11.38A147.18,147.18,0,0,0,105.15.09,145.54,145.54,0,0,0,55.83,10.64a2,2,0,0,0-1.1,1.08,2.05,2.05,0,0,0,0,1.54l4.84,11.61,43,103.06,7.48,17.93a2,2,0,0,0,1.85,1.23H112a2,2,0,0,0,1.78-1.24l7.82-19,7-16.9L133,99a2.56,2.56,0,0,0,.11-.24,12.07,12.07,0,0,0,1-2.41l.92-2.25,9.39-22.84,8.68-21.11,10.07-24.5L168,14A2,2,0,0,0,166.9,11.38Zm-67.23,61a13.53,13.53,0,0,1,1.07,5.36,13.83,13.83,0,0,1-8.48,12.67l-.83.31-.51-1.23c.28-.09.56-.2.83-.31a12.47,12.47,0,0,0,6.7-16.29,12.52,12.52,0,0,0-11-7.64c-.32,0-.64,0-1,0a12.26,12.26,0,0,0-4.34,1c-.27.11-.54.24-.8.37l-.52-1.23c.27-.13.54-.26.81-.37a13.69,13.69,0,0,1,4.79-1c.36,0,.71,0,1.07,0A13.85,13.85,0,0,1,99.67,72.35ZM89.32,85.76,82.86,70.28a8.22,8.22,0,0,1,.84-.42,8.31,8.31,0,0,1,2.94-.65,8.5,8.5,0,0,1,8.12,5.19,8.47,8.47,0,0,1-4.55,11.06A9.3,9.3,0,0,1,89.32,85.76Zm22.58,54.11L107.76,130a2.14,2.14,0,0,0,.35-.06l.18,0a1.78,1.78,0,0,0,.5-.24,2,2,0,0,0,.86-1.38c.53-3.75,1.26-3.77,2-3.8a5.79,5.79,0,0,1,1.62.21,10.86,10.86,0,0,1,1.26.4l.37.16a8.09,8.09,0,0,1,.84.4l.39.21c.28.17.56.36.83.55l.28.2.07.07Zm8.54-53.51h0a11.43,11.43,0,0,1,5.28,1.16c.35.17.68.36,1,.55a10.56,10.56,0,0,1,.87.62c.23.17.44.36.65.55s.62.59.91.91c.07.08.14.18.21.27a5,5,0,0,0-4.43,4,8.1,8.1,0,0,0,0-1.11,7.57,7.57,0,0,0-5.15-6.93Zm4.68,21.34-.42.17-.41.15c-.23.08-.46.14-.69.2l-.31.08a11.81,11.81,0,0,1-2.18.29h0a10.85,10.85,0,0,1-1.14,0c-.27,0-.55,0-.82-.08a10.92,10.92,0,0,1-2.37-.63h0l0,0-.49-.21-.21-.1-.76-.4a12.22,12.22,0,0,1-1.16-.76,1.85,1.85,0,0,0,.58.08,1.76,1.76,0,1,0-1.81-1.7,1.66,1.66,0,0,0,.2.74,11,11,0,0,1-1.31-1.5h0a11.17,11.17,0,0,1-.89-1.48l-.19-.38c-.08-.16-.14-.34-.21-.51a10.38,10.38,0,0,1-.5-1.55h0a10.33,10.33,0,0,1-.3-2.23c0-.33,0-.66,0-1,0-.09,0-.17,0-.25,0-.31.06-.63.11-.94a.06.06,0,0,1,0,0c0-.25.1-.48.16-.72a7.41,7.41,0,0,0,2.26,4.2,7.52,7.52,0,0,0,5.45,2.05,7.75,7.75,0,0,0,1.18-.13,3.68,3.68,0,0,0,3.35,5.46,3.7,3.7,0,0,0,3.55-3.8,3.66,3.66,0,0,0-1.16-2.57,3.6,3.6,0,0,0-2.06-1,7.54,7.54,0,0,0,2.31-4.24q0,.33,0,.66A5,5,0,0,0,126.4,99a5.1,5.1,0,0,0,1.84,1.1Zm-11.26-14A3.56,3.56,0,0,1,117.29,90l-.07-2,.09,2a3.55,3.55,0,1,1-3.45,3.66Zm7.92,9.09a.3.3,0,0,1,.3-.32l0,.63a.33.33,0,0,1-.23-.09A.32.32,0,0,1,121.78,102.77Zm.32.31,0-.63h0a.32.32,0,0,1,0,.63Zm8.22-8-.54,1.32a1,1,0,0,1-.64-.26,1,1,0,0,1-.31-.7,1,1,0,0,1,1-1,2.61,2.61,0,0,1,.56,0A2.86,2.86,0,0,1,130.32,95.05ZM133,88.57c-.24-.33-.5-.65-.77-1l-.08-.1h0a15.07,15.07,0,0,0-2.1-2h0c-.38-.29-.77-.57-1.18-.83s-.87-.51-1.34-.75a14.65,14.65,0,0,0-2-.81,14.8,14.8,0,0,0-3.86-.74c-.44,0-.87,0-1.3,0h-.1a14.83,14.83,0,0,0-5.75,1.37c-.46.21-.9.45-1.33.7a14.76,14.76,0,0,0-2.33,1.67h0a15.19,15.19,0,0,0-2,2.11c-.3.38-.58.79-.84,1.19A14.82,14.82,0,0,0,106.68,92a15.05,15.05,0,0,0-1,5.91,14.72,14.72,0,0,0,.4,3v0c0,.16.1.31.14.47.08.32.17.63.27,1s.35.92.55,1.37h0a15.13,15.13,0,0,0,1.48,2.52h0a15.14,15.14,0,0,0,1.91,2.17,14.89,14.89,0,0,0,2.84,2.09,14.28,14.28,0,0,0,2.06,1h0a14.83,14.83,0,0,0,2,.61l.19,0a15,15,0,0,0,2.22.32h.06c.42,0,.85,0,1.28,0h.3c.44,0,.88-.06,1.32-.11l.29,0,.25,0-4.28,10.42,0,0c-.32-.22-.65-.42-1-.61l-.26-.13c-.26-.14-.52-.27-.79-.39l-.35-.16-.77-.3-.34-.12c-.37-.12-.74-.23-1.11-.32a9.78,9.78,0,0,0-2.72-.32c-3.58.13-4.88,2.77-5.45,5.07l-.2-.05-13-31.06c.3-.1.59-.21.88-.33a17.78,17.78,0,0,0-7.5-34.18c-.54,0-1.06.07-1.59.13a17.7,17.7,0,0,0-4.6,1.23l-.8.36-.06,0L64.05,25.22l.39-.16,1.17-.43L67,24.11l1.19-.42,1.42-.48,1.2-.39,1.41-.45L73.45,22l1.42-.42,1.22-.34,1.43-.38,1.22-.32,1.43-.36,1.23-.29,1.44-.32,1.23-.27L85.53,19l1.22-.24,1.47-.26c.41-.08.81-.15,1.22-.21l1.49-.24,1.21-.18,1.52-.21,1.19-.15,1.56-.18,1.15-.12q.82-.09,1.65-.15l1.08-.1q.92-.07,1.83-.12l.9-.07q1.37-.08,2.73-.12c1,0,2.1-.06,3.14-.07h3.27l.92,0c1,0,2.09.05,3.14.1h.17l3,.18.94.07,2.35.21.89.08,3.13.36.29,0c1,.12,1.9.26,2.85.4l.93.15,2.35.4.85.15c1,.19,2.07.4,3.1.61l.39.09c.91.19,1.81.39,2.71.61l.93.22c.77.19,1.54.38,2.31.59l.83.21c1,.26,1.92.53,2.88.82a3,3,0,0,0-.42-.06,10.48,10.48,0,0,0-1.48-.07,9.36,9.36,0,0,0-9,8.27,10.84,10.84,0,0,0-.06,1.13c0,.12,0,.23,0,.34,0,.27,0,.54.06.8s0,.23.05.34a9,9,0,0,0,.19.9,1,1,0,0,0,0,.17,7.09,7.09,0,0,0,.35,1c0,.1.08.18.12.27.11.24.23.48.36.71s.11.2.17.3.29.46.45.69l.15.2q.33.42.69.81l.18.16a6.76,6.76,0,0,0,.62.57l.12.1c-.35,0-.7-.07-1.06-.08l-.43,0h-.89l-.27,0-.61.05-.79.1-.74.13c-.18,0-.35.08-.52.12l-.66.18-.42.12c-.36.12-.72.25-1.07.4-2.25.93-3.62,2.17-4.19,3.79a6.74,6.74,0,0,0,.44,4.87L123,50.51a6.05,6.05,0,0,0-3.25,7.91l3.7,8.87A6.08,6.08,0,0,0,129.3,71a5.87,5.87,0,0,0,2.1-.46l5.46-2.28c.06.16.13.31.2.47a.83.83,0,0,1,.07.13l.18.36a.83.83,0,0,1,.07.13c.09.15.18.31.28.46l0,0,.28.42.1.12a2.69,2.69,0,0,0,.27.32l.09.11a4.68,4.68,0,0,0,.39.38l.06,0,.37.3.14.09c.12.08.24.16.37.23l.09,0Zm21.1-64.39.23.08c1.31.47,2.61,1,3.9,1.48l.51.21L150.89,45c0-.07-.11-.13-.16-.19-.26-.32-.53-.64-.81-.94l-.32-.33c-.31-.31-.62-.61-.94-.89l-.18-.17c-.38-.33-.78-.63-1.18-.92l-.34-.24c-.32-.21-.63-.42-1-.61-.08,0-.15-.1-.22-.14h.12a9.34,9.34,0,0,0,8-5,9.44,9.44,0,0,0-1-10.16,8.54,8.54,0,0,0-.69-.78l-.24-.23c-.18-.17-.35-.33-.53-.48l-.3-.23-.56-.39-.31-.19c-.22-.13-.45-.25-.68-.36l-.13-.07.41.13C151.32,23.22,152.71,23.69,154.09,24.18Zm-12.7,44,0,0a.89.89,0,0,1-.13-.14h0a7.81,7.81,0,0,1-1.06-2.26v0c-.07-.2-.14-.41-.21-.64a2,2,0,0,0-1.06-1.23,2.07,2.07,0,0,0-.42-.14h-.14a1.55,1.55,0,0,0-.31,0H138l-.19,0-.13,0a1.66,1.66,0,0,0-.38.11l-7.41,3.09a2.09,2.09,0,0,1-2.68-1.1l-3.71-8.87a2.13,2.13,0,0,1,0-1.57,2,2,0,0,1,1.11-1.11L132,51.1a2,2,0,0,0,1-2.79c-.63-1.17-1.44-2.82-1.15-3.62.16-.47.86-1,2-1.44a10.35,10.35,0,0,1,3.69-.8c.29,0,.59,0,.89,0l.29,0,.59.05.35.06c.17,0,.35.05.52.09l.37.08.49.12.38.12.47.16.37.14.46.19.36.18.44.22.36.2.42.25.35.23.41.29.34.25.39.31.32.28.37.35a4.11,4.11,0,0,1,.3.29,4.27,4.27,0,0,1,.36.38c.1.1.19.21.28.31l.35.42.25.32c.12.15.22.31.33.46l.23.33.32.51.19.32a.43.43,0,0,0,0,.07Zm9.53-36.3a5.38,5.38,0,0,1-5.16,4.75,4.91,4.91,0,0,1-.86,0,5.41,5.41,0,0,1,.45-10.77,6,6,0,0,1,.85,0,5.42,5.42,0,0,1,4.72,6Z"/><path class="cls-1" d="M125.73,35.49A7.6,7.6,0,0,0,119.1,27a6.73,6.73,0,0,0-1.19-.05,7.59,7.59,0,0,0-.64,15.12,6.89,6.89,0,0,0,1.2,0A7.56,7.56,0,0,0,125.73,35.49Zm-4-.48a3.65,3.65,0,0,1-4,3.13,3.6,3.6,0,1,1,4-3.13Z"/><path class="cls-1" d="M129.08,41.49A12.66,12.66,0,0,0,131,36.13a12.93,12.93,0,0,0-11.27-14.38,13.73,13.73,0,0,0-2-.09,12.92,12.92,0,0,0-1.08,25.74,13.86,13.86,0,0,0,2,.09h0A13,13,0,0,0,129.08,41.49Zm-12,1.94a8.92,8.92,0,0,1,.75-17.77,8.2,8.2,0,0,1,1.4.06,8.92,8.92,0,0,1-.74,17.77A8.32,8.32,0,0,1,117.11,43.43Z"/><path class="cls-1" d="M101.82,38.86l0-.23-.09-.69c0-.13,0-.27-.07-.4s-.07-.34-.1-.5-.07-.3-.11-.45l-.12-.45c0-.15-.09-.3-.14-.45s-.09-.29-.14-.44-.11-.29-.16-.43-.13-.32-.2-.48-.1-.24-.16-.36-.21-.46-.33-.68l-.07-.14-.21-.37h0l-.21-.33-.24-.38c-.12-.19-.25-.36-.37-.54s-.17-.24-.26-.35-.3-.38-.45-.56-.15-.19-.24-.28c-.23-.27-.48-.53-.73-.78h0a15.06,15.06,0,0,0-2.07-1.68L95,27.62h0a14.73,14.73,0,0,0-2.65-1.36,14.32,14.32,0,0,0-2.81-.8,15.19,15.19,0,0,0-8.56.91,15.15,15.15,0,0,0-6.88,5.76h0a14.76,14.76,0,0,0-1.35,2.62,15.27,15.27,0,0,0-.81,2.83,15,15,0,0,0-.24,3.27,15.3,15.3,0,0,0,1.17,5.34.33.33,0,0,1,0,.06l.22.44a13.83,13.83,0,0,0,1,1.88,14.74,14.74,0,0,0,1.31,1.7c.25.29.5.58.76.84h0a11,11,0,0,0,.86.78l.33.25.61.47h0l.1.07h0a15.07,15.07,0,0,0,1.77,1.08c.33.17.66.33,1,.47a15,15,0,0,0,3.16.95h0a14.74,14.74,0,0,0,1.47.18l.16,0c.43,0,.87,0,1.3,0h.37c.33,0,.66,0,1-.07h0a15.23,15.23,0,0,0,2.84-.58,13.35,13.35,0,0,0,1.38-.5h0a15.07,15.07,0,0,0,9-11.21,16,16,0,0,0,.23-2.22q0-.53,0-1.05s0,0,0,0Zm-13,9.07a3.55,3.55,0,1,1-2.67-6,3.55,3.55,0,0,1,3.68,3.52A3.52,3.52,0,0,1,88.84,47.93ZM80.9,40.16a7.56,7.56,0,0,0-1.44,8.51l-.33-.3L79,48.26a11.31,11.31,0,0,1-.8-.88l-.33-.45c-.13-.18-.27-.35-.39-.54a11.89,11.89,0,0,1-.92-1.7h0l0-.1v0a9.39,9.39,0,0,1-.42-1.23,1.09,1.09,0,0,1,0-.17A10,10,0,0,1,75.79,42l0-.21q-.08-.62-.09-1.23v-.2A10.93,10.93,0,0,1,75.74,39v0a5,5,0,0,0,6,.42A8,8,0,0,0,80.9,40.16Zm-1.18-4.22a1,1,0,0,1-1.4,0,1,1,0,0,1,0-1.4,1,1,0,0,1,1.4,0A1,1,0,0,1,79.72,35.94Zm15,12.16a9.45,9.45,0,0,1-1,.9l-.32.24a9.28,9.28,0,0,1-.83.56l-.19.12a7.55,7.55,0,0,0-.8-9.87,7.57,7.57,0,0,0-9.48-.89,4.69,4.69,0,0,0,.47-.42,5,5,0,0,0-1.41-8l.22-.13.23-.13c.29-.15.58-.29.89-.42a11.14,11.14,0,0,1,6.3-.67,10.63,10.63,0,0,1,2.07.59,11.08,11.08,0,0,1,1.94,1,11.22,11.22,0,0,1,3.77,4.08l.06.13c.15.3.3.61.43.92h0a3.82,3.82,0,0,0-3.51,1,3.76,3.76,0,0,0,.06,5.31,3.84,3.84,0,0,0,3.87.87s0,.11,0,.16c-.07.25-.15.49-.24.73,0,.09-.07.18-.11.28-.12.3-.26.61-.41.9A10.9,10.9,0,0,1,94.72,48.1Zm1.7-8.16c-.11.11-.32,0-.34,0a.25.25,0,0,1,0-.35.26.26,0,0,1,.17-.07.22.22,0,0,1,.17.07A.24.24,0,0,1,96.42,39.94Z"/><path class="cls-1" d="M91.57,31A3.75,3.75,0,0,0,88.85,30a3.69,3.69,0,0,0-2.44,6.32,3.75,3.75,0,0,0,2.71,1,3.68,3.68,0,0,0,2.5-1.11A3.69,3.69,0,0,0,91.57,31Zm-2.36,2.85a.32.32,0,0,1-.54-.21.34.34,0,0,1,.09-.22.37.37,0,0,1,.22-.1.33.33,0,0,1,.23.09.36.36,0,0,1,.09.22A.29.29,0,0,1,89.21,33.86Z"/><path class="cls-2" d="M60.2,126.39a324,324,0,0,0-46.83,11Q17.75,126.64,23,116q-9.82-6.65-20.34-12.7a360.05,360.05,0,0,1,52-12.2Q57.43,108.74,60.2,126.39Z"/><path class="cls-2" d="M60.2,126.39a301.55,301.55,0,0,0-27.65-12.78Q28.49,96.23,24.4,78.83q13.65-3.21,27.47-5.37Q56,99.92,60.2,126.39Z"/><path class="cls-2" d="M161,126.39a324.3,324.3,0,0,1,46.83,11q-4.38-10.74-9.62-21.38,9.81-6.65,20.34-12.7a360.05,360.05,0,0,0-52-12.2Q163.76,108.74,161,126.39Z"/><path class="cls-2" d="M161,126.39a301.55,301.55,0,0,1,27.65-12.78q4.06-17.39,8.15-34.78-13.65-3.21-27.47-5.37Q165.17,99.92,161,126.39Z"/><path class="cls-2" d="M188.64,113.61a342.06,342.06,0,0,0-156.09,0Q28.49,96.23,24.4,78.83a377.67,377.67,0,0,1,172.39,0Q192.71,96.22,188.64,113.61Z"/><path class="cls-3" d="M36.86,89.65l1.2-.19,1.46-.27,1.73-.36,1.15-.25a5.74,5.74,0,0,1,3.92.3,3.33,3.33,0,0,1,1.74,2.4,4.7,4.7,0,0,1,0,1.46,3.65,3.65,0,0,1-.58,1.52,4.32,4.32,0,0,1-1.43,1.34,7.53,7.53,0,0,1-2.56.91l-1.86.37-.08-.37,1.68-.34a2.8,2.8,0,0,0,1.7-.85,2.48,2.48,0,0,0,.58-1.49A7.06,7.06,0,0,0,45.42,92a5.06,5.06,0,0,0-1.1-2.54A2.24,2.24,0,0,0,42.15,89q-.76.15-.93.51a2.34,2.34,0,0,0,0,1.33L43,100a2.82,2.82,0,0,0,.36,1,.8.8,0,0,0,.67.35,5.77,5.77,0,0,0,1.25-.11l.08.39c-.36,0-.83.12-1.41.23l-1.77.34-1.51.31c-.48.1-.9.2-1.26.29l-.07-.37a3.84,3.84,0,0,0,.89-.33.69.69,0,0,0,.33-.53,3.92,3.92,0,0,0-.1-1l-1.82-9.24a3.77,3.77,0,0,0-.3-1,.7.7,0,0,0-.5-.37,3,3,0,0,0-1,0Z"/><path class="cls-3" d="M54.11,86.46l.06.38a3.09,3.09,0,0,0-.88.29.74.74,0,0,0-.35.52,4.06,4.06,0,0,0,.06,1L54.57,98a3.29,3.29,0,0,0,.29,1,.69.69,0,0,0,.49.38,3.29,3.29,0,0,0,.94,0l.06.38-1.21.15-1.48.25-1.57.27c-.48.09-.88.17-1.19.25l-.06-.37a3.8,3.8,0,0,0,.9-.31.69.69,0,0,0,.34-.52,4.07,4.07,0,0,0-.07-1l-1.57-9.29a3.74,3.74,0,0,0-.28-1,.7.7,0,0,0-.49-.38,3.08,3.08,0,0,0-1,0l-.06-.37,1.21-.17c.48-.07,1-.15,1.57-.25l1.48-.26Z"/><path class="cls-3" d="M65.51,84.8l0,.37-5,13.47,2.52-.35a4.16,4.16,0,0,0,1.32-.4,3.14,3.14,0,0,0,1-.81,3.52,3.52,0,0,0,.64-1.3,6.28,6.28,0,0,0,.15-1.91l.43-.06c0,.42.08,1,.17,1.63,0,.26.11.64.2,1.14s.19,1,.32,1.55c-.69.07-1.48.17-2.35.28l-2.34.33c-.78.1-1.6.22-2.47.35s-1.67.26-2.43.4l-.06-.38,5-13.47L60.13,86a4.18,4.18,0,0,0-1.68.59,2.82,2.82,0,0,0-1,1.33,6.16,6.16,0,0,0-.3,2.33l-.44.06a5.67,5.67,0,0,0,0-.67c0-.25-.07-.52-.11-.81s-.1-.64-.19-1.14-.2-1-.32-1.55l2.21-.26,2.18-.3L63,85.2C63.9,85.07,64.73,84.93,65.51,84.8Z"/><path class="cls-3" d="M77.14,83.5l0,.38-5.44,13.3,2.53-.27a4.48,4.48,0,0,0,1.33-.36,3.13,3.13,0,0,0,1-.77,3.43,3.43,0,0,0,.68-1.29,6,6,0,0,0,.21-1.89l.44,0c0,.42,0,1,.12,1.63,0,.26.08.65.15,1.15s.17,1,.27,1.56l-2.35.2-2.36.25-2.47.28c-.87.1-1.68.2-2.45.31l0-.38,5.48-13.3-2.59.28a4,4,0,0,0-1.7.54A2.59,2.59,0,0,0,69,86.36a6,6,0,0,0-.38,2.31l-.44,0a5.34,5.34,0,0,0,0-.67c0-.25,0-.52-.08-.81s-.08-.65-.15-1.15-.17-1-.28-1.56c.67,0,1.41-.11,2.23-.19L72,84.12l2.59-.29Z"/><path class="cls-3" d="M88.93,82.59c0,.52,0,1,0,1.51s0,.86,0,1.11,0,.47.07.69.06.41.08.56l-.43,0a7.48,7.48,0,0,0-.65-2,2.22,2.22,0,0,0-1-1,3.12,3.12,0,0,0-1.53-.2l-1,.08a2.81,2.81,0,0,0-.87.16.58.58,0,0,0-.37.42,2.92,2.92,0,0,0,0,.94l.72,9.7a2.83,2.83,0,0,0,.18.91.59.59,0,0,0,.43.38,3,3,0,0,0,.88,0l1.08-.08a3.32,3.32,0,0,0,1.59-.48,2.58,2.58,0,0,0,1-1.26,8,8,0,0,0,.42-2.31l.43,0c0,.39,0,.9.06,1.52,0,.26.06.65.11,1.15s.13,1,.22,1.57c-.64,0-1.37.06-2.18.11L86,96.24l-1.63.12-2.17.17L80,96.74l0-.38a3.34,3.34,0,0,0,.92-.22.64.64,0,0,0,.39-.49,4,4,0,0,0,0-1l-.7-9.39a4.31,4.31,0,0,0-.18-1,.67.67,0,0,0-.45-.42,3.12,3.12,0,0,0-1-.08l0-.37,2.15-.13,2.17-.14L85,82.94l2-.16C87.69,82.72,88.35,82.66,88.93,82.59ZM86.36,89.3l0,.37L83,89.93l0-.38Zm.36-2.55c0,.73,0,1.28.06,1.66s.06.72.09,1,0,.66.09,1,.12.92.22,1.64l-.44,0a6.72,6.72,0,0,0-.38-1.2,2,2,0,0,0-.69-.88,1.91,1.91,0,0,0-1.25-.26l0-.38a1.64,1.64,0,0,0,1.17-.5,2.47,2.47,0,0,0,.52-1,9.11,9.11,0,0,0,.21-1.1Z"/><path class="cls-3" d="M91.24,82.44h1.21c.5,0,1,0,1.49,0l1.76-.08,1.18-.07a6.59,6.59,0,0,1,3.82.75A2.82,2.82,0,0,1,102,85.35a3.78,3.78,0,0,1-.2,1.3,3.14,3.14,0,0,1-.81,1.23,4.46,4.46,0,0,1-1.63,1,8.59,8.59,0,0,1-2.67.45l-1.82.07,0-.38,1.64-.06a3.28,3.28,0,0,0,1.81-.5,2.09,2.09,0,0,0,.81-1.17,5.37,5.37,0,0,0,.16-1.59,4,4,0,0,0-.68-2.3,2.3,2.3,0,0,0-2.06-.75,1.24,1.24,0,0,0-1,.36,2.4,2.4,0,0,0-.18,1.32l.36,9.41a3.82,3.82,0,0,0,.15,1,.67.67,0,0,0,.45.43,3.36,3.36,0,0,0,.92.12l0,.38c-.32,0-.73,0-1.22,0l-1.5,0L93,95.79c-.5,0-.9.06-1.22.09V95.5a3.6,3.6,0,0,0,.93-.18.67.67,0,0,0,.4-.48,3.64,3.64,0,0,0,.07-1l-.36-9.41a3.69,3.69,0,0,0-.15-1,.67.67,0,0,0-.43-.44,2.89,2.89,0,0,0-1-.11Zm3.65,6.61q.9,0,1.5,0l1,0c.28,0,.54,0,.77.06a4.58,4.58,0,0,1,2.35.64,2.88,2.88,0,0,1,1.07,1.72l.51,1.94a4.05,4.05,0,0,0,.41,1.1.61.61,0,0,0,.59.29.74.74,0,0,0,.45-.16,1.87,1.87,0,0,0,.37-.41l.27.22a3,3,0,0,1-1,.9,2.87,2.87,0,0,1-1.34.33,2.67,2.67,0,0,1-1.55-.37,2.41,2.41,0,0,1-.92-1.59L99,91.92a11.87,11.87,0,0,0-.41-1.39A2.35,2.35,0,0,0,98,89.6a1.36,1.36,0,0,0-1-.31l-2.06.08Z"/><path class="cls-3" d="M109.92,82v.38a3.18,3.18,0,0,0-.92.15.71.71,0,0,0-.42.46,3.43,3.43,0,0,0-.1,1l.09,9.42a3.31,3.31,0,0,0,.12,1,.71.71,0,0,0,.43.45,3.65,3.65,0,0,0,.93.14v.38c-.32,0-.72,0-1.22,0s-1,0-1.5,0-1.1,0-1.59,0-.9,0-1.22,0v-.38a3.22,3.22,0,0,0,.94-.16.66.66,0,0,0,.41-.46,3.46,3.46,0,0,0,.09-1L105.87,84a3.63,3.63,0,0,0-.11-1,.68.68,0,0,0-.42-.45,3,3,0,0,0-1-.14V82l1.22,0q.73,0,1.59,0t1.5,0Z"/><path class="cls-3" d="M117.62,82,122,94a2.28,2.28,0,0,0,.6,1,1.21,1.21,0,0,0,.61.29v.38c-.33,0-.72-.06-1.19-.07l-1.41,0-1.56,0c-.48,0-.87,0-1.18,0v-.38a1.9,1.9,0,0,0,1.24-.31c.18-.2.15-.62-.09-1.27l-3.18-9.08.35-.41L113,91.86a5.15,5.15,0,0,0-.51,1.92,1,1,0,0,0,.44,1,2.46,2.46,0,0,0,1.23.31v.38c-.41,0-.8-.06-1.18-.07l-1.14,0h-.79l-.65,0V95a1.82,1.82,0,0,0,.84-.48,3.86,3.86,0,0,0,.81-1.37L116.63,82a3.79,3.79,0,0,0,.49,0Zm1.5,8.07v.38l-5.66-.11.19-.37Z"/><path class="cls-3" d="M135.81,82.59a6.86,6.86,0,0,1,3.33,1,5.74,5.74,0,0,1,2.1,2.51,8.86,8.86,0,0,1-.55,7.41,6,6,0,0,1-2.47,2.32,6.3,6.3,0,0,1-3.42.66,7,7,0,0,1-3.34-1.06,5.68,5.68,0,0,1-2.1-2.51,8.82,8.82,0,0,1,.56-7.41,6.25,6.25,0,0,1,2.47-2.32A6.35,6.35,0,0,1,135.81,82.59Zm-.1.33a2.64,2.64,0,0,0-2,.72,5.65,5.65,0,0,0-1.44,2.26,11.7,11.7,0,0,0-.7,3.44,10.7,10.7,0,0,0,.26,3.53A5.56,5.56,0,0,0,133,95.26a2.75,2.75,0,0,0,1.86.94,2.67,2.67,0,0,0,2-.71,5.82,5.82,0,0,0,1.45-2.27,12.54,12.54,0,0,0,.7-3.43,10.67,10.67,0,0,0-.27-3.54,5.45,5.45,0,0,0-1.21-2.38A2.75,2.75,0,0,0,135.71,82.92Z"/><path class="cls-3" d="M156.3,84.86l0,.37a2.12,2.12,0,0,0-1,.17,1,1,0,0,0-.5.64,6.35,6.35,0,0,0-.25,1.3l-1.21,10.78a1.93,1.93,0,0,0-.36-.06,3,3,0,0,0-.43,0l-6.87-11.92-.91,8.16a7.3,7.3,0,0,0-.05,1.42,1,1,0,0,0,.42.77,3.11,3.11,0,0,0,1.15.43l0,.38a6.78,6.78,0,0,0-.92-.15c-.38-.05-.74-.1-1.08-.13l-.91-.1c-.31,0-.57,0-.77,0l0-.37a2.43,2.43,0,0,0,1-.18,1.11,1.11,0,0,0,.49-.63,6.65,6.65,0,0,0,.25-1.3l1-8.72a3.27,3.27,0,0,0,0-1,.65.65,0,0,0-.36-.5,3.09,3.09,0,0,0-.92-.25l0-.37.76.12.92.12.85.08.74,0,6,10.22.74-6.63a6.55,6.55,0,0,0,0-1.43,1.05,1.05,0,0,0-.41-.77,2.77,2.77,0,0,0-1.15-.42l0-.38.93.15,1.06.13.94.09Z"/><path class="cls-3" d="M163.56,85.93q3.6.55,5.09,2.5a6.48,6.48,0,0,1,1,5.08,7.23,7.23,0,0,1-1.4,3.45,5.87,5.87,0,0,1-2.83,2,8.55,8.55,0,0,1-4.06.25L160.12,99c-.55-.1-1-.19-1.46-.25l-1.51-.22c-.49-.07-.89-.12-1.21-.14L156,98a3.76,3.76,0,0,0,1,0,.72.72,0,0,0,.48-.39,4,4,0,0,0,.26-1l1.42-9.32a4,4,0,0,0,.06-1,.69.69,0,0,0-.35-.52,2.88,2.88,0,0,0-.91-.28l.06-.38,1.2.23c.48.1,1,.17,1.46.24l1.53.19Zm-.22.31a1.46,1.46,0,0,0-1.18.15,2.24,2.24,0,0,0-.46,1.25L160.26,97a2.14,2.14,0,0,0,.08,1.34,1.51,1.51,0,0,0,1.08.49,4.53,4.53,0,0,0,2.85-.32,4,4,0,0,0,1.72-2,12.82,12.82,0,0,0,.94-3.41,8.66,8.66,0,0,0-.31-4.85A3.94,3.94,0,0,0,163.34,86.24Z"/><path class="cls-3" d="M178,88.36l2.29,12.56a2.26,2.26,0,0,0,.43,1,1.2,1.2,0,0,0,.56.39l-.08.37-1.15-.27-1.39-.27-1.53-.29c-.48-.08-.87-.14-1.17-.17l.07-.37a1.89,1.89,0,0,0,1.28-.1q.31-.24.12-1.26l-1.58-9.49.41-.35-4.47,7.17a5.52,5.52,0,0,0-.83,1.81,1.06,1.06,0,0,0,.27,1,2.51,2.51,0,0,0,1.16.51l-.07.37-1.15-.27-1.11-.22-.78-.14a6,6,0,0,0-.65-.08l.07-.37a1.75,1.75,0,0,0,.9-.33,3.87,3.87,0,0,0,1-1.21l6.39-10.23.48.11Zm.11,8.2-.07.37-5.56-1.06.26-.34Z"/></g></g></svg>